<?xml version="1.0" encoding="UTF-8"?>
<svg width="23px" height="23px" viewBox="0 0 23 23" version="1.1" xmlns="http://www.w3.org/2000/svg">
    <g stroke="none" stroke-width="1" fill="none" fill-rule="evenodd">
        <path d="M11.5,0 C13.433,0 15,1.567 15,3.5 C15,5.433 13.433,7 11.5,7 L8,7 L8,0 L11.5,0 Z" fill="#F24E1E"></path>
        <path d="M0,11.5 C0,9.567 1.567,8 3.5,8 C5.433,8 7,9.567 7,11.5 C7,13.433 5.433,15 3.5,15 C1.567,15 0,13.433 0,11.5 Z" fill="#A259FF"></path>
        <path d="M11.5,8 C13.433,8 15,9.567 15,11.5 C15,13.433 13.433,15 11.5,15 C9.567,15 8,13.433 8,11.5 C8,9.567 9.567,8 11.5,8 Z" fill="#0ACF83"></path>
        <path d="M23,11.5 C23,9.567 21.433,8 19.5,8 C17.567,8 16,9.567 16,11.5 C16,13.433 17.567,15 19.5,15 C21.433,15 23,13.433 23,11.5 Z" fill="#FF7262"></path>
        <path d="M11.5,16 C13.433,16 15,17.567 15,19.5 C15,21.433 13.433,23 11.5,23 C9.567,23 8,21.433 8,19.5 C8,17.567 9.567,16 11.5,16 Z" fill="#1ABCFE"></path>
    </g>
</svg> 