<?xml version="1.0" encoding="UTF-8"?>
<svg width="12px" height="12px" viewBox="0 0 12 12" version="1.1" xmlns="http://www.w3.org/2000/svg">
    <g stroke="none" stroke-width="1" fill="none" fill-rule="evenodd">
        <path d="M0,0 L12,0 L12,12 L0,12 L0,0 Z" fill="#F7DF1E"></path>
        <path d="M2.5,9.5 L3.5,8.5 C3.8,8.8 4,9 4.3,9.2 C4.6,9.4 4.9,9.5 5.3,9.5 C5.7,9.5 6,9.4 6.2,9.2 C6.4,9 6.5,8.7 6.5,8.3 L6.5,4 L8,4 L8,8.3 C8,8.9 7.8,9.4 7.4,9.8 C7,10.2 6.5,10.4 5.9,10.4 C5.3,10.4 4.8,10.2 4.4,9.8 C4,9.4 3.7,8.9 3.5,8.3 L2.5,9.5 Z" fill="#000000"></path>
    </g>
</svg> 