<?xml version="1.0" encoding="UTF-8"?>
<svg width="12px" height="12px" viewBox="0 0 12 12" version="1.1" xmlns="http://www.w3.org/2000/svg">
    <g stroke="none" stroke-width="1" fill="none" fill-rule="evenodd">
        <path d="M6,0 C4.5,0 4,0.5 4,1 L4,2 L8,2 L8,1 C8,0.5 7.5,0 6,0 Z M3,1 C2.5,1 2,1.5 2,2 L2,3 L4,3 L4,4 L1,4 L1,2 C1,1.5 1.5,1 2,1 L3,1 Z M9,1 C9.5,1 10,1.5 10,2 L10,4 L8,4 L8,3 L6,3 L6,2 L10,2 L10,1 L9,1 Z M4,8 L4,9 C4,9.5 4.5,10 6,10 C7.5,10 8,9.5 8,9 L8,8 L4,8 Z M9,8 L9,9 C9,9.5 8.5,10 8,10 L7,10 L7,11 L9,11 L9,10 C10,10 11,9 11,8 L11,4 L9,4 L9,8 Z M3,8 L3,4 L5,4 L5,3 L2,3 L2,8 C2,9 3,10 4,10 L5,10 L5,9 L4,9 C3.5,9 3,8.5 3,8 Z" fill="#306998"></path>
    </g>
</svg> 