<?xml version="1.0" encoding="UTF-8"?>
<svg width="12px" height="12px" viewBox="0 0 12 12" version="1.1" xmlns="http://www.w3.org/2000/svg">
    <g stroke="none" stroke-width="1" fill="none" fill-rule="evenodd">
        <path d="M6,0 C2.7,0 0,1.1 0,2.5 C0,3.9 2.7,5 6,5 C9.3,5 12,3.9 12,2.5 C12,1.1 9.3,0 6,0 Z M6,6 C2.7,6 0,7.1 0,8.5 C0,9.9 2.7,11 6,11 C9.3,11 12,9.9 12,8.5 C12,7.1 9.3,6 6,6 Z" fill="#61DAFB"></path>
        <circle fill="#61DAFB" cx="6" cy="2.5" r="1"></circle>
        <circle fill="#61DAFB" cx="6" cy="8.5" r="1"></circle>
    </g>
</svg> 