<?xml version="1.0" encoding="UTF-8"?>
<svg width="23px" height="23px" viewBox="0 0 23 23" version="1.1" xmlns="http://www.w3.org/2000/svg">
    <g stroke="none" stroke-width="1" fill="none" fill-rule="evenodd">
        <path d="M11.5,0 C17.8512746,0 23,5.14872538 23,11.5 C23,17.8512746 17.8512746,23 11.5,23 C5.14872538,23 0,17.8512746 0,11.5 C0,5.14872538 5.14872538,0 11.5,0 Z" fill="#BF5700"></path>
        <path d="M11.5,2 C6.25329488,2 2,6.25329488 2,11.5 C2,16.7467051 6.25329488,21 11.5,21 C16.7467051,21 21,16.7467051 21,11.5 C21,6.25329488 16.7467051,2 11.5,2 Z" fill="#FFFFFF"></path>
        <path d="M11.5,4 C7.35786384,4 4,7.35786384 4,11.5 C4,15.6421362 7.35786384,19 11.5,19 C15.6421362,19 19,15.6421362 19,11.5 C19,7.35786384 15.6421362,4 11.5,4 Z" fill="#BF5700"></path>
        <path d="M11.5,6 C8.46243388,6 6,8.46243388 6,11.5 C6,14.5375661 8.46243388,17 11.5,17 C14.5375661,17 17,14.5375661 17,11.5 C17,8.46243388 14.5375661,6 11.5,6 Z" fill="#FFFFFF"></path>
        <path d="M11.5,8 C9.56700338,8 8,9.56700338 8,11.5 C8,13.4329966 9.56700338,15 11.5,15 C13.4329966,15 15,13.4329966 15,11.5 C15,9.56700338 13.4329966,8 11.5,8 Z" fill="#BF5700"></path>
    </g>
</svg> 