<?xml version="1.0" encoding="UTF-8"?>
<svg width="300" height="300" version="1.1" viewBox="0 0 300 300" xmlns="http://www.w3.org/2000/svg">
 <path d="m178.57 127.15-53.981 61.054h-17.64l53.981-61.054h17.64zm10.25-11.636h-41.318a3.8595 3.8595 0 0 0-2.753 1.1578l-72.725 82.27a3.8595 3.8595 0 0 0 2.753 6.5613h41.318a3.8595 3.8595 0 0 0 2.753-1.1578l72.725-82.27a3.8595 3.8595 0 0 0-2.753-6.5613zm37.95-30.809-103.8 117.43h-17.64l103.8-117.43h17.64zm10.25-11.636h-41.318a3.8595 3.8595 0 0 0-2.753 1.1578l-122.54 138.65a3.8595 3.8595 0 0 0 2.753 6.5613h41.318a3.8595 3.8595 0 0 0 2.753-1.1578l122.54-138.65a3.8595 3.8595 0 0 0-2.753-6.5613z" fill="currentColor"/>
</svg>
